<mxfile host="app.diagrams.net" agent="Mozilla/5.0 (Windows NT 10.0; Win64; x64) AppleWebKit/537.36 (KHTML, like Gecko) Chrome/134.0.0.0 Safari/537.36" version="26.1.1">
  <diagram name="Page-1" id="CxnV0l6C8y_58entesIV">
    <mxGraphModel dx="954" dy="558" grid="1" gridSize="10" guides="1" tooltips="1" connect="1" arrows="1" fold="1" page="1" pageScale="1" pageWidth="850" pageHeight="1100" math="0" shadow="0">
      <root>
        <mxCell id="0" />
        <mxCell id="1" parent="0" />
        <mxCell id="O6itRg83OWu8OazRwmH3-1" value="Servo Motor 1-8" style="rounded=1;whiteSpace=wrap;html=1;" vertex="1" parent="1">
          <mxGeometry x="150" y="110" width="120" height="30" as="geometry" />
        </mxCell>
        <mxCell id="O6itRg83OWu8OazRwmH3-2" value="Buzzer" style="rounded=1;whiteSpace=wrap;html=1;" vertex="1" parent="1">
          <mxGeometry x="150" y="190" width="120" height="30" as="geometry" />
        </mxCell>
        <mxCell id="O6itRg83OWu8OazRwmH3-3" value="LCD Display" style="rounded=1;whiteSpace=wrap;html=1;" vertex="1" parent="1">
          <mxGeometry x="150" y="270" width="120" height="30" as="geometry" />
        </mxCell>
        <mxCell id="O6itRg83OWu8OazRwmH3-4" value="Ultrasonic" style="rounded=1;whiteSpace=wrap;html=1;" vertex="1" parent="1">
          <mxGeometry x="360" y="110" width="120" height="30" as="geometry" />
        </mxCell>
        <mxCell id="O6itRg83OWu8OazRwmH3-5" value="Temp/Humidity" style="rounded=1;whiteSpace=wrap;html=1;" vertex="1" parent="1">
          <mxGeometry x="360" y="160" width="120" height="30" as="geometry" />
        </mxCell>
        <mxCell id="O6itRg83OWu8OazRwmH3-6" value="Air Quality&amp;nbsp;" style="rounded=1;whiteSpace=wrap;html=1;" vertex="1" parent="1">
          <mxGeometry x="360" y="210" width="120" height="30" as="geometry" />
        </mxCell>
        <mxCell id="O6itRg83OWu8OazRwmH3-7" value="Touch" style="rounded=1;whiteSpace=wrap;html=1;" vertex="1" parent="1">
          <mxGeometry x="360" y="260" width="120" height="30" as="geometry" />
        </mxCell>
        <mxCell id="O6itRg83OWu8OazRwmH3-11" value="" style="rounded=1;whiteSpace=wrap;html=1;fillColor=none;dashed=1;" vertex="1" parent="1">
          <mxGeometry x="140" y="80" width="140" height="240" as="geometry" />
        </mxCell>
        <mxCell id="O6itRg83OWu8OazRwmH3-12" value="" style="rounded=1;whiteSpace=wrap;html=1;fillColor=none;dashed=1;" vertex="1" parent="1">
          <mxGeometry x="350" y="80" width="140" height="240" as="geometry" />
        </mxCell>
        <mxCell id="O6itRg83OWu8OazRwmH3-13" value="Actuator Control Task" style="text;html=1;align=center;verticalAlign=middle;whiteSpace=wrap;rounded=0;" vertex="1" parent="1">
          <mxGeometry x="145" y="40" width="130" height="30" as="geometry" />
        </mxCell>
        <mxCell id="O6itRg83OWu8OazRwmH3-14" value="Sensor Reading Task" style="text;html=1;align=center;verticalAlign=middle;whiteSpace=wrap;rounded=0;" vertex="1" parent="1">
          <mxGeometry x="355" y="40" width="130" height="30" as="geometry" />
        </mxCell>
        <mxCell id="O6itRg83OWu8OazRwmH3-15" value="" style="rounded=1;whiteSpace=wrap;html=1;fillColor=none;dashed=1;" vertex="1" parent="1">
          <mxGeometry x="560" y="80" width="140" height="240" as="geometry" />
        </mxCell>
        <mxCell id="O6itRg83OWu8OazRwmH3-16" value="Wifi Task" style="text;html=1;align=center;verticalAlign=middle;whiteSpace=wrap;rounded=0;" vertex="1" parent="1">
          <mxGeometry x="600" y="185" width="60" height="30" as="geometry" />
        </mxCell>
        <mxCell id="O6itRg83OWu8OazRwmH3-17" value="" style="rounded=1;whiteSpace=wrap;html=1;fillColor=none;dashed=1;" vertex="1" parent="1">
          <mxGeometry x="350" y="380" width="140" height="140" as="geometry" />
        </mxCell>
        <mxCell id="O6itRg83OWu8OazRwmH3-18" value="System Control Task" style="text;html=1;align=center;verticalAlign=middle;whiteSpace=wrap;rounded=0;" vertex="1" parent="1">
          <mxGeometry x="355" y="435" width="130" height="30" as="geometry" />
        </mxCell>
        <mxCell id="O6itRg83OWu8OazRwmH3-19" value="" style="endArrow=classic;html=1;rounded=0;exitX=0.5;exitY=1;exitDx=0;exitDy=0;entryX=0;entryY=0.25;entryDx=0;entryDy=0;" edge="1" parent="1" source="O6itRg83OWu8OazRwmH3-11" target="O6itRg83OWu8OazRwmH3-17">
          <mxGeometry width="50" height="50" relative="1" as="geometry">
            <mxPoint x="400" y="410" as="sourcePoint" />
            <mxPoint x="450" y="360" as="targetPoint" />
          </mxGeometry>
        </mxCell>
        <mxCell id="O6itRg83OWu8OazRwmH3-20" value="" style="endArrow=classic;html=1;rounded=0;exitX=0.5;exitY=1;exitDx=0;exitDy=0;entryX=0.5;entryY=0;entryDx=0;entryDy=0;" edge="1" parent="1" source="O6itRg83OWu8OazRwmH3-12" target="O6itRg83OWu8OazRwmH3-17">
          <mxGeometry width="50" height="50" relative="1" as="geometry">
            <mxPoint x="400" y="330" as="sourcePoint" />
            <mxPoint x="450" y="360" as="targetPoint" />
          </mxGeometry>
        </mxCell>
        <mxCell id="O6itRg83OWu8OazRwmH3-21" value="" style="endArrow=classic;html=1;rounded=0;entryX=0.75;entryY=1;entryDx=0;entryDy=0;exitX=1.025;exitY=0.657;exitDx=0;exitDy=0;exitPerimeter=0;" edge="1" parent="1">
          <mxGeometry width="50" height="50" relative="1" as="geometry">
            <mxPoint x="490" y="471.98" as="sourcePoint" />
            <mxPoint x="661.5" y="320" as="targetPoint" />
          </mxGeometry>
        </mxCell>
        <mxCell id="O6itRg83OWu8OazRwmH3-22" value="" style="endArrow=classic;html=1;rounded=0;exitX=0.5;exitY=1;exitDx=0;exitDy=0;entryX=1.004;entryY=0.45;entryDx=0;entryDy=0;entryPerimeter=0;" edge="1" parent="1" source="O6itRg83OWu8OazRwmH3-15" target="O6itRg83OWu8OazRwmH3-17">
          <mxGeometry width="50" height="50" relative="1" as="geometry">
            <mxPoint x="400" y="410" as="sourcePoint" />
            <mxPoint x="450" y="360" as="targetPoint" />
          </mxGeometry>
        </mxCell>
        <mxCell id="O6itRg83OWu8OazRwmH3-23" value="Motor Status Info" style="text;html=1;align=center;verticalAlign=middle;whiteSpace=wrap;rounded=0;" vertex="1" parent="1">
          <mxGeometry x="210" y="350" width="120" height="30" as="geometry" />
        </mxCell>
        <mxCell id="O6itRg83OWu8OazRwmH3-25" value="Sensor Data" style="text;html=1;align=center;verticalAlign=middle;whiteSpace=wrap;rounded=0;" vertex="1" parent="1">
          <mxGeometry x="355" y="330" width="120" height="30" as="geometry" />
        </mxCell>
        <mxCell id="O6itRg83OWu8OazRwmH3-27" value="User Control Info" style="text;html=1;align=center;verticalAlign=middle;whiteSpace=wrap;rounded=0;rotation=-40;" vertex="1" parent="1">
          <mxGeometry x="490" y="360" width="120" height="30" as="geometry" />
        </mxCell>
        <mxCell id="O6itRg83OWu8OazRwmH3-28" value="System Info" style="text;html=1;align=center;verticalAlign=middle;whiteSpace=wrap;rounded=0;rotation=-40;" vertex="1" parent="1">
          <mxGeometry x="530" y="405" width="120" height="30" as="geometry" />
        </mxCell>
      </root>
    </mxGraphModel>
  </diagram>
</mxfile>
